<svg width="380" height="470" viewBox="0 0 380 470" fill="none" xmlns="http://www.w3.org/2000/svg">
<path fill-rule="evenodd" clip-rule="evenodd" d="M0 380V10C0 4.47716 4.47715 5.64919e-06 10 5.64919e-06H50C55.5228 5.64919e-06 60 4.47715 60 10V380C60 396.568 73.4314 410 90 410H290C306.569 410 320 396.568 320 380V269.83C320 264.307 324.477 259.83 330 259.83H370C375.523 259.83 380 264.307 380 269.83V380C380 429.705 339.706 470 290 470H90C40.2944 470 0 429.705 0 380Z" fill="black"/>
<path fill-rule="evenodd" clip-rule="evenodd" d="M250.745 1.4415e-10L369.984 0.000205825C375.506 0.000215359 379.984 4.47738 379.984 10.0002L379.983 50.0002C379.983 55.5231 375.506 60.0002 369.983 60.0002L250.745 60C234.177 60 220.745 73.4314 220.745 90V300.907C220.745 306.429 216.268 310.907 210.745 310.907H170.745C165.222 310.907 160.745 306.429 160.745 300.907V90C160.745 40.2943 201.04 -8.80032e-05 250.745 1.4415e-10Z" fill="black"/>
<path d="M378.745 159.748C378.745 176.317 365.314 189.748 348.745 189.748C332.177 189.748 318.745 176.317 318.745 159.748C318.745 143.18 332.177 129.748 348.745 129.748C365.314 129.748 378.745 143.18 378.745 159.748Z" fill="black"/>
</svg>
